<svg xmlns="http://www.w3.org/2000/svg"><style>:root svg:not(:target){display:none}</style><svg viewBox="0 0 25 30" fill="none" id="eat-icon"><path fill-rule="evenodd" clip-rule="evenodd" d="M18.62.08a1 1 0 0 1 1.09.21c.9.91 2.1 2.88 3.06 5.92a42.6 42.6 0 0 1 1.73 12.79 1 1 0 0 1-1 1h-3.5v9a1 1 0 1 1-2 0v-28a1 1 0 0 1 .62-.92Zm1.38 17.92h2.5a39.62 39.62 0 0 0-1.64-11.19 22.4 22.4 0 0 0-.86-2.3v13.49Zm-14-18a1 1 0 0 1 1 1v28a1 1 0 1 1-2 0v-28a1 1 0 0 1 1-1Z" fill="#fff"></path><path fill-rule="evenodd" clip-rule="evenodd" d="M1.5 0a1 1 0 0 1 1 1v5.5c0 .56.2 1.32.7 1.92.48.56 1.31 1.08 2.8 1.08a1 1 0 1 1 0 2 5.41 5.41 0 0 1-4.33-1.8 5.07 5.07 0 0 1-1.17-3.2v-5.5a1 1 0 0 1 1-1Z" fill="#fff"></path><path fill-rule="evenodd" clip-rule="evenodd" d="M10.5 0a1 1 0 0 0-1 1v5.5c0 .56-.2 1.32-.7 1.92-.48.56-1.31 1.08-2.8 1.08a1 1 0 0 0 0 2 5.4 5.4 0 0 0 4.33-1.8 5.07 5.07 0 0 0 1.17-3.2v-5.5a1 1 0 0 0-1-1Z" fill="#fff"></path></svg><svg viewBox="0 0 80 83" fill="none" id="icon-gift"><path d="M65.66 36.01h-51.27a3.27 3.27 0 0 1-3.26-3.27v-9.83c0-1.8 1.46-3.28 3.26-3.28h51.27c1.8 0 3.26 1.47 3.26 3.28v9.83c0 1.8-1.46 3.27-3.26 3.27Zm-51.27-13.86a.78.78 0 0 0-.76.76v9.83c0 .42.34.76.76.76h51.27c.42 0 .76-.34.76-.76v-9.83a.77.77 0 0 0-.76-.76h-51.27Z" fill="#fff"></path><path d="M58.5 69.67h-36.96a6.3 6.3 0 0 1-6.28-6.32v-28.6a1.25 1.25 0 1 1 2.5.01v28.6a3.8 3.8 0 0 0 3.78 3.8h36.97a3.8 3.8 0 0 0 3.78-3.8v-28.6a1.25 1.25 0 1 1 2.5 0v28.6a6.3 6.3 0 0 1-6.28 6.3Z" fill="#fff"></path><path d="M40.02 69.67c-.69 0-1.25-.57-1.25-1.26v-33.65a1.25 1.25 0 1 1 2.5 0v33.65c0 .7-.56 1.26-1.25 1.26Zm-15.6-47.53a8.15 8.15 0 0 1-3.25-11 8.06 8.06 0 0 1 10.94-3.27c5.96 3.25 9.18 12.3 9.31 12.7l-2.36.82c-.03-.08-3.03-8.53-8.14-11.3a5.56 5.56 0 0 0-7.55 2.25 5.62 5.62 0 0 0 2.24 7.6l-1.19 2.2Z" fill="#fff"></path><path d="m55.62 22.14-1.19-2.2a5.58 5.58 0 0 0-5.3-9.85c-5.1 2.77-8.12 11.22-8.15 11.3l-2.36-.83c.14-.38 3.36-9.44 9.32-12.69a8.02 8.02 0 0 1 10.94 3.27 8.1 8.1 0 0 1-3.26 11Zm7.92 30.7h-47.03a1.25 1.25 0 0 1 0-2.51h47.03a1.25 1.25 0 0 1 0 2.51Z" fill="#fff"></path></svg><svg viewBox="0 0 30 32" fill="none" id="natural-icon"><g clip-path="url(#natural-icon_0)"><path d="M27.78 2.77a.95.95 0 0 0-.92-.77c-4.94.03-16.95.92-21.8 8.38-2.51 3.88-2.73 8.91-.64 14.96l.07.13a25.93 25.93 0 0 0-1.04 3.32 1 1 0 0 0 .72 1.19l.2.02c.43 0 .82-.32.91-.79.02-.1 2.4-10.37 10.85-16.38.44-.3.55-.93.26-1.38a.9.9 0 0 0-1.3-.28c-4.78 3.4-7.73 8-9.47 11.65-1.24-4.57-.91-8.37.99-11.3 3.74-5.76 12.62-7.15 17.98-7.45-1.15 1.8-2.41 5.1-2.41 10.93 0 3.12-.83 5.52-2.47 7.14-2.62 2.6-6.88 2.83-10 2.58-.5-.04-.96.38-1 .93a.98.98 0 0 0 .87 1.07c.62.05 1.28.08 1.98.08 3.17 0 6.87-.66 9.43-3.2 2.03-2 3.06-4.9 3.06-8.6 0-9.1 3.22-11.1 3.23-11.1.4-.21.6-.68.5-1.13Z" fill="#fff"></path></g><defs><clipPath id="natural-icon_0"><path fill="#fff" d="M0 0h30v32h-30z"></path></clipPath></defs></svg><svg viewBox="0 0 26 29" fill="none" id="powder-icon"><path d="M10.88 0c-1.64 0-2.9 1.36-2.9 3.08s1.26 3.08 2.9 3.08c1.63 0 2.9-1.36 2.9-3.08s-1.27-3.08-2.9-3.08Zm0 1.18c1 0 1.72.84 1.72 1.9 0 1-.8 1.9-1.72 1.9-1 0-1.73-.84-1.73-1.9 0-1 .78-1.9 1.72-1.9Zm-10.88 23.56c0 1.18.4 2.18 1.36 3 1 .84 2.17.77 2.17.77h19.04c.77 0 1.8-.38 2.62-1.45.85-1 .8-2.36.8-2.36v-17.21c0-.44-.12-.6-.75-.6-.64 0-.69.27-.69.59v17.22c-.02.3-.07 1.08-.74 1.72-.74.62-1.45.54-1.45.54s-18.13 0-19.03-.03a2.14 2.14 0 0 1-1.45-.9c-.51-.73-.41-1.63-.41-1.63v-17.22c0-.46-.24-.64-.73-.64s-.74.18-.74.58v17.62Zm16.31-16.31c-1.08.23-2.17.38-4.26 2.35-2.08 2-3.62 1.9-5.16 1.82-1.54-.1-3.17-1.54-3.45-1.9-.33-.36-.9-.12-1.08.11-.16.24-.16.64.1 1 1.27 1.18 2.45 2.08 4.72 2.26a7.5 7.5 0 0 0 5.89-2.26c1.45-1.45 2.17-1.72 3.26-1.9a6.3 6.3 0 0 1 5.08 1.26c1 1.1 1.26.78 1.54.48.54-.72-.23-1.27-1.1-1.9a7.24 7.24 0 0 0-5.52-1.28l-.02-.04Zm-9.06 7.16c-1.18 0-2.08 1-2.08 2.26 0 1.27.9 2.27 2.08 2.27 1.18 0 2.08-1 2.08-2.27s-.9-2.26-2.08-2.26Zm11.78.78c-1.54 0-2.8 1.36-2.8 2.99 0 1.63 1.26 2.99 2.8 2.99 1.54 0 2.81-1.36 2.81-3 0-1.62-1.27-2.98-2.8-2.98Zm0 1.45c.8 0 1.45.7 1.45 1.54a1.5 1.5 0 0 1-1.45 1.54c-.8 0-1.45-.7-1.45-1.54 0-.86.65-1.54 1.45-1.54Z" fill="#fff"></path></svg><svg viewBox="0 0 28 22" fill="none" id="telegram-icon"><path fill-rule="evenodd" clip-rule="evenodd" d="M23.46 3.15c.18.15.27.38.23.61l-2.63 15.76a.66.66 0 0 1-1.01.44l-7.88-5.25a.66.66 0 0 1-.15-.96l2.61-3.26-4.36 2.9a.66.66 0 0 1-.65.05l-5.26-2.63a.66.66 0 0 1 .08-1.2l18.38-6.57a.66.66 0 0 1 .64.11Zm-17.13 7.17 3.53 1.77 7.56-5.04a.66.66 0 0 1 .88.96l-4.8 6 6.43 4.3 2.28-13.66-15.88 5.67Z" fill="#666"></path></svg><svg viewBox="0 0 26 31" fill="none" id="time-icon"><path d="M5.54 0c-1.06 0-1.06 1.58 0 1.58h6.64v1.6c-6.8.44-12.18 6.23-12.18 13.3 0 4.02 1.74 7.64 4.5 10.07.47.43.54 1.18.1 1.64l-1.53 1.55c-.74.69.36 1.75 1.03 1l2-2.03c.35-.34.87-.43 1.3-.21a12.7 12.7 0 0 0 11.07.06c.43-.21.96-.13 1.3.21l1.94 1.97c.68.64 1.65-.31 1.04-1l-1.45-1.48c-.44-.45-.38-1.2.1-1.63a13.46 13.46 0 0 0 4.6-10.16c0-7.07-5.41-12.87-12.22-13.28v-1.6h6.64c1.06 0 1.06-1.59 0-1.59h-14.88Zm-4.1 16.47a11.7 11.7 0 0 1 11.56-11.82c6.38 0 11.55 5.3 11.55 11.82 0 6.55-5.17 11.85-11.55 11.85-6.38 0-11.57-5.3-11.57-11.85Zm10.75-8.09c0-1.1 1.66-1.1 1.66 0v8.63a.84.84 0 0 1-.85.85.81.81 0 0 1-.8-.8v-8.68Zm-4.97 2.62a1.16 1.16 0 0 0 1.16-1.15 1.15 1.15 0 0 0-1.16-1.15 1.16 1.16 0 0 0-1.05 1.14 1.15 1.15 0 0 0 1.05 1.15Zm11.55 0a1.16 1.16 0 0 0 1.16-1.15 1.15 1.15 0 0 0-1.16-1.15 1.16 1.16 0 0 0-1.05 1.14 1.15 1.15 0 0 0 1.05 1.15Zm-10.4 12.59c0 1.53-2.31 1.53-2.31 0s2.32-1.53 2.32 0Zm4.63 3.44a1.17 1.17 0 0 0 1.17-.68 1.14 1.14 0 0 0-.7-1.56 1.17 1.17 0 0 0-1.22.32 1.15 1.15 0 0 0 .75 1.92Zm-8.09-10.39a1.14 1.14 0 0 1-.68 1.17 1.17 1.17 0 0 1-1.57-.7 1.14 1.14 0 0 1 .32-1.2 1.16 1.16 0 0 1 1.93.73Zm17.33 1.15a1.16 1.16 0 0 0 1.17-.68 1.14 1.14 0 0 0-.7-1.55 1.17 1.17 0 0 0-1.22.32 1.15 1.15 0 0 0 .75 1.91Zm-2.31 5.8c0 1.53-2.32 1.53-2.32 0s2.32-1.53 2.32 0Z" fill="#fff"></path></svg><svg viewBox="0 0 27 17" fill="currentColor" id="vk-icon"><path d="M0 2.34c0-.86.52-1.32 1.55-1.38l3.97.02c.26 0 .44.13.53.38.4 1.26.86 2.34 1.37 3.25.5.92 1.17 1.97 1.99 3.16.07.15.18.23.34.23.13 0 .22-.06.3-.18l.07-.28.03-4.35c0-.3-.07-.5-.23-.6-.15-.1-.43-.18-.83-.23-.32-.05-.48-.23-.48-.55 0-.07 0-.12.02-.15.38-1.09 1.44-1.63 3.2-1.63l1.5-.03c.67 0 1.23.16 1.67.48.44.32.67.82.67 1.5v5.72c.12.08.24.12.34.12.27 0 .5-.15.7-.45 1.95-2.58 3-4.31 3.17-5.18a.3.3 0 0 1 .05-.13c.12-.25.33-.47.61-.65.29-.19.53-.31.75-.38a.55.55 0 0 1 .24-.05h4.13l.26.03c.36 0 .63.16.83.47.07.1.12.21.15.33a2.4 2.4 0 0 1 .06.55v.18a6.11 6.11 0 0 1-.94 2.2 23.4 23.4 0 0 1-1.93 2.53c-.79.9-1.27 1.5-1.47 1.78a.93.93 0 0 0-.24.56c0 .13.07.28.21.45l3.9 4.63c.2.26.31.56.31.88 0 .38-.16.7-.48.95-.32.25-.7.4-1.14.43l-.46.02h-4.04c-.02 0-.06 0-.11.02a.88.88 0 0 1-.1.01c-.4 0-.76-.16-1.1-.48-.12-.13-.96-1.12-2.5-2.97a1.39 1.39 0 0 0-.38-.32l-.28 1.15-.25 1.09-.08.42a1.4 1.4 0 0 1-1.12 1.06l-.37.02h-2.61c-1.48 0-2.95-.63-4.41-1.9a19.3 19.3 0 0 1-3.96-4.95 47.52 47.52 0 0 1-3.28-7.05 1.92 1.92 0 0 1-.13-.73Zm16.01 6.51c-.37 0-.7-.1-1.01-.29a.9.9 0 0 1-.45-.79v-5.78c0-.34-.1-.58-.27-.72-.18-.14-.49-.21-.93-.21l-1.52.05c-.76 0-1.34.12-1.73.37.78.36 1.17.93 1.17 1.71v4.43a1.5 1.5 0 0 1-.53 1.04 1.6 1.6 0 0 1-1.07.42c-.53 0-.94-.24-1.22-.73a26.16 26.16 0 0 1-3.1-5.63l-.23-.66-3.55-.02c-.23 0-.36.01-.38.03-.03.03-.04.1-.04.22 0 .15.01.3.05.48l.56 1.4c1.49 3.64 3.11 6.51 4.86 8.6 1.75 2.1 3.47 3.15 5.16 3.15h2.66c.1 0 .19-.03.24-.09.05-.06.1-.17.13-.34l.06-.25.5-2.21c.15-.3.27-.5.38-.6.2-.2.42-.28.69-.28.43 0 .86.24 1.3.73l2.27 2.71c.14.22.3.33.45.33h4.4c.53 0 .8-.13.8-.38a.47.47 0 0 0-.08-.25l-3.87-4.55c-.3-.35-.45-.73-.45-1.13 0-.4.14-.8.43-1.16.23-.34.68-.9 1.34-1.67.67-.78 1.25-1.51 1.75-2.19.5-.68.82-1.3.98-1.85l.08-.33a.37.37 0 0 1-.02-.16.54.54 0 0 0-.03-.19h-4.18c-.27.1-.48.25-.64.45l-.16.48c-.45 1.16-1.6 2.94-3.5 5.36-.36.33-.8.5-1.3.5Z" fill="#666"></path></svg><svg viewBox="0 0 28 22" fill="none" id="youtube-icon"><path d="m17.85 10.8-5.24-3.5a.65.65 0 0 0-1.01.55v6.98a.65.65 0 0 0 1.01.54l5.24-3.49a.65.65 0 0 0 0-1.09Zm-4.94 2.8v-4.53l3.4 2.27-3.4 2.27Zm12.48-8.56a2.4 2.4 0 0 0-1.45-1.63c-3.72-1.43-9.69-1.41-9.94-1.41s-6.22-.02-9.94 1.4a2.4 2.4 0 0 0-1.45 1.64 25.32 25.32 0 0 0-.61 6.3c0 3.26.33 5.22.61 6.3a2.4 2.4 0 0 0 1.45 1.63c3.72 1.43 9.69 1.4 9.94 1.4h.08c.75 0 6.31-.04 9.86-1.4a2.4 2.4 0 0 0 1.45-1.64c.28-1.07.61-3.03.61-6.3 0-3.25-.33-5.22-.61-6.29Zm-1.27 12.27a1.1 1.1 0 0 1-.65.74c-3.5 1.34-9.4 1.32-9.47 1.32-.07 0-5.98.02-9.47-1.32a1.09 1.09 0 0 1-.65-.74c-.27-1-.57-2.85-.57-5.97 0-3.12.3-4.97.57-5.97a1.1 1.1 0 0 1 .65-.74c3.5-1.34 9.4-1.32 9.47-1.32.07 0 5.98-.02 9.47 1.32a1.1 1.1 0 0 1 .65.74c.27 1 .57 2.85.57 5.97 0 3.12-.3 4.96-.57 5.97Z" fill="#666"></path></svg></svg>